# xmcd
#
# Track frame offsets:
#	150
#	12927
#	26511
#	41256
#	51924
#	61008
#	78180
#	91836
#	107436
#	124020
#
# Disc length: 1797 seconds
#
# Revision: 0
# Processed by: cddbd v1.5.2PL0 Copyright (c) Steve Scherf et al.
# Submitted via: audiograbber 1.83.01
#
DISCID=6707030a
DTITLE=Hugh Campbell - Father Listen
DYEAR=2003
DGENRE=Country
TTITLE0=Charlotte
TTITLE1=Weight
TTITLE2=Make Your Move
TTITLE3=Grayson County
TTITLE4=Fire In The Furnace
TTITLE5=Father Listen
TTITLE6=Mt Little Vessel
TTITLE7=Diamonds And Pearls
TTITLE8=Ah Nazaria
TTITLE9=Auburn Hair
EXTD=
EXTT0=
EXTT1=
EXTT2=
EXTT3=
EXTT4=
EXTT5=
EXTT6=
EXTT7=
EXTT8=
EXTT9=
PLAYORDER=
